<svg xmlns="http://www.w3.org/2000/svg" xmlns:xlink="http://www.w3.org/1999/xlink" viewBox="0 0 24 24"><defs><style>.cls-1{fill:none}.cls-2{fill:url(#linear-gradient)}.cls-3{fill:url(#radial-gradient)}.cls-4{fill:url(#linear-gradient-2)}.cls-5{fill:#fff;opacity:.6}.cls-6{fill:url(#linear-gradient-3)}.cls-7{fill:url(#radial-gradient-2)}</style><linearGradient id="linear-gradient" x1="12" x2="12" y1="19" y2="1" gradientUnits="userSpaceOnUse"><stop offset="0" stop-color="#684c2b"/><stop offset=".77" stop-color="#aa7d28"/></linearGradient><radialGradient id="radial-gradient" cx="-.52" cy="4.24" r="34.26" gradientUnits="userSpaceOnUse"><stop offset=".21" stop-color="#fff"/><stop offset=".28" stop-color="#fffef9"/><stop offset=".38" stop-color="#fefce8"/><stop offset=".49" stop-color="#fef7cc"/><stop offset=".61" stop-color="#fdf2a5"/><stop offset=".68" stop-color="#fcee8d"/><stop offset=".97" stop-color="#d2ac7c"/></radialGradient><linearGradient id="linear-gradient-2" x1="15" x2="15" y1="16" y2="2" gradientUnits="userSpaceOnUse"><stop offset=".03" stop-color="#c4a185"/><stop offset=".36" stop-color="#c6a485"/><stop offset=".63" stop-color="#ceaf86"/><stop offset=".88" stop-color="#dac087"/><stop offset=".93" stop-color="#ddc487"/></linearGradient><linearGradient id="linear-gradient-3" x1="1323" x2="1336" y1="-1307.5" y2="-1307.5" gradientTransform="matrix(0, 1, 1, 0, 1314, -1314)" gradientUnits="userSpaceOnUse"><stop offset="0" stop-color="#6cae40"/><stop offset=".59" stop-color="#2d6a2d"/><stop offset="1" stop-color="#195c19"/></linearGradient><radialGradient id="radial-gradient-2" cx="1642.85" cy="907.02" r="14.89" gradientTransform="matrix(-1, 0, 0, 1, 1643, -889)" gradientUnits="userSpaceOnUse"><stop offset="0" stop-color="#4ea43f"/><stop offset=".55" stop-color="#b7e060"/><stop offset=".64" stop-color="#b9e163"/><stop offset=".71" stop-color="#bde36e"/><stop offset=".77" stop-color="#c5e67f"/><stop offset=".83" stop-color="#d0eb98"/><stop offset=".89" stop-color="#def1b7"/><stop offset=".95" stop-color="#f0f8dd"/><stop offset=".99" stop-color="#fff"/></radialGradient></defs><g id="Layer_2" data-name="Layer 2"><g id="browseFolder"><g id="browseFolder_24"><rect width="24" height="24" class="cls-1"/><path d="M22.5,1H6V4H0V5L6,19H24V1ZM6.71,18,1,5H6v.5L7,7H18l4,11ZM23,16,19,6H8L7,5V2H23Z" class="cls-2"/><polygon points="7 18 1 5 6 5 6 5.5 7.5 7 18 7 22 18 7 18" class="cls-3"/><polygon points="23 16 19 6 18 6 8 6 7 5 7 2 23 2 23 16" class="cls-4"/><rect width="16" height="1" x="7" y="2" class="cls-5"/><path d="M3,16H0l5,6,5-6H7s0-4,6-4V9C9,9,3,10,3,16Z" class="cls-6"/><path d="M8.12,17H6c0-2,.92-6,6-6V10S4,9,4,17H2l3,3.5Z" class="cls-7"/><polygon points="4.88 20.73 2 17 3 17 5.38 20.21 4.88 20.73" class="cls-5"/><path d="M5,17H4c0-7,6.19-7.11,7.68-7C9.4,10.08,5,11.06,5,17Z" class="cls-5"/></g></g></g></svg>