<svg xmlns="http://www.w3.org/2000/svg" xmlns:xlink="http://www.w3.org/1999/xlink" viewBox="0 0 24 24"><defs><radialGradient id="a733660e-f950-42ba-981a-a96c9c6e16d8" cx="2.25" cy=".75" r="25.93" gradientUnits="userSpaceOnUse"><stop offset=".15" stop-color="#fff"/><stop offset=".83" stop-color="#fcee8d"/><stop offset="1" stop-color="#e7cd85"/></radialGradient><linearGradient id="b2f3be84-18c4-48c2-b92c-91c33c254ada" x1="10.5" x2="10.5" y2="21" gradientUnits="userSpaceOnUse"><stop offset=".19" stop-color="#749dc2"/><stop offset=".35" stop-color="#6c91b3"/><stop offset=".94" stop-color="#51687e"/></linearGradient><linearGradient id="a78b26d5-2338-427a-82e4-e45c6e50f5cc" x1="18.5" x2="18.5" y1="24" y2="10" gradientUnits="userSpaceOnUse"><stop offset="0" stop-color="#195c19"/><stop offset=".41" stop-color="#2d6a2d"/><stop offset="1" stop-color="#6cae40"/></linearGradient><radialGradient id="f6c5c637-ad1f-42ee-8b98-ef0e0ab926dc" cx="18.69" cy="8.38" r="16.59" gradientUnits="userSpaceOnUse"><stop offset=".01" stop-color="#fff"/><stop offset=".7" stop-color="#b7d563"/><stop offset="1" stop-color="#4ea246"/></radialGradient></defs><g style="isolation:isolate"><g id="abcce452-20c0-4f7e-a0aa-9dbf16afa052" data-name="Layer 1"><path d="M20,10H11V1h9Zm0,1H11v9h9ZM10,11H1v9h9ZM10,1H1v9h9Z" style="fill:url(#a733660e-f950-42ba-981a-a96c9c6e16d8)"/><g style="mix-blend-mode:darken"><rect width="9" height="9" x="1" y="11" style="fill:none"/><rect width="9" height="9.01" x="11" y=".99" style="fill:none"/><rect width="9" height="9.01" x="1" y=".99" style="fill:none"/><rect width="9" height="9" x="11" y="11" style="fill:none"/><path d="M0,0V21H21V0ZM20,1v9H11V1ZM1,1h9v9H1ZM1,20V11h9v9Zm19,0H11V11h9Z" style="fill:url(#b2f3be84-18c4-48c2-b92c-91c33c254ada)"/><rect width="9" height="1" x="1" y="1" style="fill:#fff;opacity:.9"/><rect width="9" height="1" x="11" y="1" style="fill:#fff;opacity:.9"/><rect width="1" height="1" x="10" y="1" style="fill:#fff;opacity:.30000000000000004"/></g><path d="M16,10v8H13l5.5,6L24,18H21V10Z" style="fill:url(#a78b26d5-2338-427a-82e4-e45c6e50f5cc)"/><polygon points="15 19 17 19 17 11 20 11 20 19 22 19 18.5 22.5 15 19" style="fill:url(#f6c5c637-ad1f-42ee-8b98-ef0e0ab926dc)"/><rect width="3" height="1" x="17" y="11" style="fill:#fff"/><polygon points="17 20 17 19 15.11 19.04 16.02 20.03 17 20" style="fill:#fff"/><polygon points="20.11 20 20.11 19 22 19.04 21.09 20.03 20.11 20" style="fill:#fff"/></g></g></svg>